# WaveFront *.obj file (generated by CINEMA 4D)

mtllib ./Level0UnderseaPlant.mtl

v 0 60.89257049560547 23.83308219909668
v 0 -3.90742993354797 29.2790641784668
v 0 60.89257049560547 -7.9198522567749
v 0 -3.90742993354797 -4.17466402053833
v -0.00000000000001 123.91420745849609 3.47609519958496
v -0.00000000000001 124.99364471435547 34.79487228393555
v -0.00000000000001 191.31671142578125 20.6016960144043
v -0.00000000000001 186.233642578125 -2.9736807346344
v -0.00000000000002 277.1639404296875 9.71472454071045
v -0.00000000000002 280.55264282226562 29.4068546295166
v 27.99543952941895 353.92205810546875 0
# 11 vertices

vn 1 0 0
vn 1 0 0
vn 1 0 0
vn 1 0 0
vn 0.98494362831116 -0.17037174105644 0.02931830845773
vn 0.94022780656815 -0.33561310172081 0.05775375664234
vn 0 0 0
# 7 normals

vt 0 0 0
vt 0 1 0
vt 1 1 0
vt 1 0 0
# 4 texture coordinates

o Plane
usemtl Mat
f 2/4/2 4/3/2 3/2/1 1/1/1
f 3/1/1 5/4/3 6/3/3 1/2/1
f 5/1/3 8/4/4 7/3/4 6/2/3
f 8/1/4 9/4/5 10/3/5 7/2/4
f 9/4/5 11/3/6 10/2/5

